<?xml version="1.0" standalone="no"?>
<!DOCTYPE svg PUBLIC "-//W3C//DTD SVG 20010904//EN"
 "http://www.w3.org/TR/2001/REC-SVG-20010904/DTD/svg10.dtd">
<svg version="1.0" xmlns="http://www.w3.org/2000/svg"
 width="180.000000pt" height="180.000000pt" viewBox="0 0 180.000000 180.000000"
 preserveAspectRatio="xMidYMid meet">

<g transform="translate(0.000000,180.000000) scale(0.100000,-0.100000)"
fill="#000000" stroke="none">
<path d="M59 1731 l-29 -29 0 -806 c0 -569 3 -812 11 -829 6 -14 22 -30 36
-36 34 -16 1612 -16 1646 0 14 6 30 22 36 36 16 34 16 1612 0 1646 -6 14 -22
30 -36 36 -17 8 -260 11 -829 11 l-806 0 -29 -29z m1639 -836 c2 -734 1 -791
-15 -803 -21 -15 -1516 -18 -1557 -2 l-26 10 0 788 c0 434 3 792 7 795 3 4
362 6 797 5 l791 -3 3 -790z"/>
<path d="M270 1310 l0 -210 210 0 210 0 0 210 0 210 -210 0 -210 0 0 -210z
m360 0 l0 -150 -150 0 -150 0 0 150 0 150 150 0 150 0 0 -150z"/>
<path d="M390 1310 l0 -90 90 0 90 0 0 90 0 90 -90 0 -90 0 0 -90z"/>
<path d="M750 1490 c0 -27 3 -30 30 -30 27 0 30 -3 30 -30 0 -27 -3 -30 -30
-30 l-30 0 0 -90 0 -90 90 0 90 0 0 30 c0 27 3 30 30 30 27 0 30 3 30 30 0 27
3 30 30 30 l30 0 0 90 0 90 -30 0 -30 0 0 -90 0 -90 -30 0 c-27 0 -30 3 -30
30 0 27 -3 30 -30 30 l-30 0 0 60 0 60 -60 0 -60 0 0 -30z m120 -120 c0 -27 3
-30 30 -30 27 0 30 -3 30 -30 l0 -30 -60 0 -60 0 0 60 0 60 30 0 c27 0 30 -3
30 -30z"/>
<path d="M1110 1310 l0 -210 210 0 210 0 0 210 0 210 -210 0 -210 0 0 -210z
m360 0 l0 -150 -150 0 -150 0 0 150 0 150 150 0 150 0 0 -150z"/>
<path d="M1230 1310 l0 -90 90 0 90 0 0 90 0 90 -90 0 -90 0 0 -90z"/>
<path d="M750 1130 c0 -27 3 -30 30 -30 27 0 30 -3 30 -30 0 -27 -3 -30 -30
-30 -27 0 -30 -3 -30 -30 0 -27 -3 -30 -30 -30 -27 0 -30 3 -30 30 0 27 -3 30
-30 30 -27 0 -30 -3 -30 -30 0 -27 -3 -30 -30 -30 -27 0 -30 -3 -30 -30 0 -27
3 -30 30 -30 27 0 30 -3 30 -30 l0 -30 89 0 90 0 3 28 c2 21 9 28 31 30 27 3
27 3 27 -57 l0 -61 -30 0 c-27 0 -30 -3 -30 -30 0 -27 -3 -30 -30 -30 -27 0
-30 3 -30 30 l0 30 -90 0 -90 0 0 30 c0 27 -3 30 -30 30 -27 0 -30 3 -30 30 0
27 -3 30 -31 30 -27 0 -30 3 -27 28 2 21 9 28 31 30 23 3 27 8 27 33 l0 29
-120 0 -120 0 0 -90 0 -90 30 0 c28 0 29 1 32 58 3 54 4 57 31 60 27 3 27 3
27 -57 l0 -61 30 0 c27 0 30 -3 30 -30 0 -27 -3 -30 -30 -30 -27 0 -30 -3 -30
-30 0 -27 3 -30 30 -30 27 0 30 3 30 30 0 27 3 30 30 30 27 0 30 -3 30 -30 l0
-30 120 0 120 0 0 -30 c0 -27 3 -30 30 -30 27 0 30 -3 30 -30 0 -27 3 -30 30
-30 27 0 30 3 30 30 0 27 3 30 30 30 27 0 30 3 30 30 0 27 3 30 30 30 27 0 30
3 30 30 l0 30 60 0 60 0 0 30 c0 27 3 30 30 30 27 0 30 -3 30 -30 0 -27 3 -30
30 -30 27 0 30 3 30 30 0 27 -3 30 -30 30 -27 0 -30 3 -30 30 0 27 -3 30 -30
30 -27 0 -30 -3 -30 -30 0 -27 -3 -30 -30 -30 l-30 0 0 60 0 60 30 0 c27 0 30
3 30 30 0 27 -3 30 -30 30 -27 0 -30 -3 -30 -30 0 -27 -3 -30 -30 -30 l-30 0
0 -90 0 -90 -30 0 -30 0 0 180 0 180 -30 0 c-27 0 -30 -3 -30 -30 0 -27 -3
-30 -30 -30 -27 0 -30 3 -30 30 0 27 -3 30 -30 30 -27 0 -30 -3 -30 -30z m120
-120 c0 -27 -3 -30 -30 -30 -27 0 -30 3 -30 30 0 27 3 30 30 30 27 0 30 -3 30
-30z m-180 -60 c0 -27 -3 -30 -30 -30 -27 0 -30 3 -30 30 0 27 3 30 30 30 27
0 30 -3 30 -30z m240 -180 c0 -27 -3 -30 -30 -30 -27 0 -30 -3 -30 -30 0 -27
-3 -30 -30 -30 -27 0 -30 3 -30 30 0 27 3 30 30 30 27 0 30 3 30 30 0 27 3 30
30 30 27 0 30 -3 30 -30z"/>
<path d="M990 1130 c0 -27 3 -30 30 -30 27 0 30 3 30 30 0 27 -3 30 -30 30
-27 0 -30 -3 -30 -30z"/>
<path d="M1230 980 l0 -60 30 0 30 0 0 -60 0 -60 30 0 c27 0 30 -3 30 -30 0
-27 3 -30 30 -30 27 0 30 3 30 30 0 27 3 30 30 30 27 0 30 3 30 30 0 27 3 30
30 30 l30 0 0 90 0 90 -30 0 -30 0 0 -60 0 -60 -30 0 -30 0 0 60 0 60 -90 0
-90 0 0 -60z"/>
<path d="M1050 680 l0 -60 -60 0 -60 0 0 -30 0 -30 -60 0 -60 0 0 -30 c0 -27
-3 -30 -30 -30 l-30 0 0 -120 0 -120 30 0 30 0 0 120 0 120 30 0 30 0 0 -60 0
-60 30 0 c27 0 30 -3 30 -30 0 -27 -3 -30 -30 -30 -27 0 -30 -3 -30 -30 l0
-30 90 0 90 0 0 60 0 60 30 0 c27 0 30 -3 30 -30 0 -27 3 -30 30 -30 27 0 30
-3 30 -30 l0 -30 120 0 120 0 0 30 c0 27 3 30 30 30 27 0 30 3 30 30 0 27 -3
30 -30 30 -27 0 -30 -3 -30 -30 0 -27 -3 -30 -30 -30 -27 0 -30 3 -30 30 l0
30 -60 0 -60 0 0 30 0 30 60 0 60 0 0 30 c0 27 3 30 30 30 27 0 30 3 30 30 0
27 -3 30 -30 30 -27 0 -30 3 -30 30 0 27 3 30 30 30 27 0 30 3 30 30 0 27 -3
30 -30 30 -27 0 -30 -3 -30 -30 l0 -30 -60 0 -60 0 0 30 0 30 -60 0 -60 0 0
30 c0 27 -3 30 -30 30 l-30 0 0 -60z m60 -150 c0 -27 3 -30 30 -30 l30 0 0
-60 0 -60 30 0 c27 0 30 -3 30 -30 0 -27 -3 -30 -30 -30 -27 0 -30 3 -30 30 0
27 -3 30 -30 30 l-30 0 0 60 0 60 -30 0 -30 0 0 -60 0 -60 -30 0 c-27 0 -30 3
-30 30 0 27 -3 30 -30 30 -27 0 -30 3 -30 30 0 27 3 30 30 30 27 0 30 3 30 30
l0 30 60 0 60 0 0 -30z m240 0 l0 -30 -60 0 -60 0 0 30 0 30 60 0 60 0 0 -30z"/>
<path d="M1470 710 c0 -27 3 -30 30 -30 27 0 30 3 30 30 0 27 -3 30 -30 30
-27 0 -30 -3 -30 -30z"/>
<path d="M270 470 l0 -210 210 0 210 0 0 210 0 210 -210 0 -210 0 0 -210z
m360 0 l0 -150 -150 0 -150 0 0 150 0 150 150 0 150 0 0 -150z"/>
<path d="M390 470 l0 -90 90 0 90 0 0 90 0 90 -90 0 -90 0 0 -90z"/>
<path d="M1470 590 c0 -27 3 -30 30 -30 27 0 30 3 30 30 0 27 -3 30 -30 30
-27 0 -30 -3 -30 -30z"/>
</g>
</svg>
